Coordinates
nRows=14
nColumns=24

# SIMM Motion File Header:
name Coordinates
datacolumns 24
datarows 14
otherdata 1
range 0.91200000000000003000 0.92500000000000004000
endheader
time	pelvis_tx	pelvis_ty	pelvis_tz	pelvis_tilt	pelvis_list	pelvis_rotation	hip_flexion_r	hip_adduction_r	hip_rotation_r	knee_angle_r	ankle_angle_r	subtalar_angle_r	mtp_angle_r	hip_flexion_l	hip_adduction_l	hip_rotation_l	knee_angle_l	ankle_angle_l	subtalar_angle_l	mtp_angle_l	lumbar_extension	lumbar_bending	lumbar_rotation
      0.91200000000000003000	      2.21086540562736510000	      0.97225760215422952000	     -0.22658465274862064000	      4.88299161784958090000	     -0.07956971167240119200	      7.95904042299559580000	     -2.11764453657563890000	      1.77127130648856320000	      6.13501213095282250000	    -13.12922025149540800000	      8.15643230169910540000	     -0.00000000000006507064	      0.00000000000022910839	      9.95468503328265440000	     -2.54651698737350740000	     -0.36280259149102118000	    -45.81538311466106700000	      7.48322015195071360000	      0.00000000000065696122	     -0.00000000000123820240	     -8.17210961467266370000	      3.63011167841936500000	      5.39641700596942990000
      0.91300000000000003000	      2.21185634571318830000	      0.97225743069783011000	     -0.22649254608759198000	      4.88694461846045410000	     -0.06827574088425299200	      7.92304162455038430000	     -2.20470280451731870000	      1.76361476685443660000	      6.12002125140222920000	    -13.09797545033704400000	      8.19639408074749200000	     -0.00000000000006512811	      0.00000000000022959908	     10.03832298002019700000	     -2.51633329372114380000	     -0.35388123290248735000	    -45.69269131527023100000	      7.57596817463771720000	      0.00000000000065856742	     -0.00000000000124104724	     -8.18708062985989220000	      3.59791964006055350000	      5.45730014918052310000
      0.91400000000000003000	      2.21284687733690430000	      0.97225522552851928000	     -0.22640078068994260000	      4.89113622148142560000	     -0.05718362953054468400	      7.88704661572929840000	     -2.29180783770826930000	      1.75613543302471850000	      6.10545209408787490000	    -13.06697626896339600000	      8.23657710131015540000	     -0.00000000000006518860	      0.00000000000023011868	     10.12132520346986200000	     -2.48633759716834700000	     -0.34432492475581328000	    -45.56882449207056100000	      7.66797937845808870000	      0.00000000000066016526	     -0.00000000000124387755	     -8.20231360942247710000	      3.56599893976283160000	      5.51756483145475580000
      0.91500000000000004000	      2.21383740896062030000	      0.97225302035920835000	     -0.22630901529229319000	      4.89532782450239700000	     -0.04609151817683638400	      7.85105160690821170000	     -2.37891287089921950000	      1.74865609919500060000	      6.09088293677352070000	    -13.03597708758974800000	      8.27676012187281880000	     -0.00000000000006524910	      0.00000000000023063827	     10.20432742691952700000	     -2.45634190061554980000	     -0.33476861660913920000	    -45.44495766887089900000	      7.75999058227845940000	      0.00000000000066176310	     -0.00000000000124670786	     -8.21754658898506380000	      3.53407823946511000000	      5.57782951372898770000
      0.91600000000000004000	      2.21482719593185840000	      0.97224677523514180000	     -0.22621804906831303000	      4.90008744568354530000	     -0.03538456861337734700	      7.81509430754125930000	     -2.46627258676592300000	      1.74152456733499460000	      6.07735122593936690000	    -13.00537038405312100000	      8.31722843087110240000	     -0.00000000000006528158	      0.00000000000023110458	     10.28588875745564100000	     -2.42674226278994580000	     -0.32404759225655083000	    -45.31860979803695200000	      7.85127594751060800000	      0.00000000000066335275	     -0.00000000000124954652	     -8.23340385085609940000	      3.50271612117133290000	      5.63680306407541920000
      0.91700000000000004000	      2.21581698290309600000	      0.97224053011107536000	     -0.22612708284433283000	      4.90484706686469350000	     -0.02467761904991834500	      7.77913700817430700000	     -2.55363230263262640000	      1.73439303547498860000	      6.06381951510521320000	    -12.97476368051649600000	      8.35769673986938600000	     -0.00000000000006531406	      0.00000000000023157088	     10.36745008799175600000	     -2.39714262496434170000	     -0.31332656790396235000	    -45.19226192720300600000	      7.94256131274275660000	      0.00000000000066494241	     -0.00000000000125238519	     -8.24926111272713490000	      3.47135400287755620000	      5.69577661442185070000
      0.91800000000000004000	      2.21680653214392900000	      0.97223285084032107000	     -0.22603642198456614000	      4.90980771352175700000	     -0.01410068309663092000	      7.74319634980617360000	     -2.64109715248021230000	      1.72737894787521710000	      6.05070905113543220000	    -12.94427833983516000000	      8.39824605915873330000	     -0.00000000000006535339	      0.00000000000023203614	     10.44848648604485700000	     -2.36768568335646280000	     -0.30223542108040030000	    -45.06501642098104600000	      8.03383008739040780000	      0.00000000000066653284	     -0.00000000000125524596	     -8.26533830636144980000	      3.44018785931813210000	      5.75428961999446110000
      0.91900000000000004000	      2.21779565663796460000	      0.97222267275165120000	     -0.22594632369367149000	      4.91508759550041590000	     -0.00373750125105196380	      7.70731519151573610000	     -2.72872115241332920000	      1.72055516054343150000	      6.03832582872333300000	    -12.91399995628620300000	      8.43896729427007310000	     -0.00000000000006539559	      0.00000000000023251325	     10.52868011591583500000	     -2.33846557744130080000	     -0.29049580921613988000	    -44.93625533612279800000	      8.12402690207107090000	      0.00000000000066812252	     -0.00000000000125813090	     -8.28176577708634200000	      3.40934904649158720000	      5.81197640431231120000
      0.92000000000000004000	      2.21878453683130860000	      0.97221110387624243000	     -0.22585656139084442000	      4.92052189574595560000	      0.00651628985450129150	      7.67149002031031820000	     -2.81641571392459240000	      1.71382654547402380000	      6.02634232910880030000	    -12.88383338508119100000	      8.47980727984973730000	     -0.00000000000006543258	      0.00000000000023300721	     10.60845855500869900000	     -2.30936844651599270000	     -0.27839259669773453000	    -44.80668702810238100000	      8.21284508107189910000	      0.00000000000066971020	     -0.00000000000126101854	     -8.29836351873427880000	      3.37868182483428820000	      5.86918550313704210000
      0.92100000000000004000	      2.21977313658331670000	      0.97219769466976746000	     -0.22576725462281283000	      4.92613812200251820000	      0.01663321217526233700	      7.63573898786043780000	     -2.90419459461844240000	      1.70721651957952900000	      6.01492641362292350000	    -12.85380741172996500000	      8.52091348670701980000	     -0.00000000000006545429	      0.00000000000023350222	     10.68770211421430700000	     -2.28043229892005560000	     -0.26587144824042874000	    -44.67607553211478000000	      8.30051615314482660000	      0.00000000000067130493	     -0.00000000000126393172	     -8.31515841941334170000	      3.34823350142384820000	      5.92577659485008910000
      0.92200000000000004000	      2.22076145589398880000	      0.97218244513222629000	     -0.22567840338957673000	      4.93193627427010380000	      0.02661326571123083500	      7.60006209416609570000	     -2.99205779449488010000	      1.70072508285994760000	      6.00407808226570340000	    -12.82392203623252400000	      8.56228591484192060000	     -0.00000000000006546072	      0.00000000000023399828	     10.76641079353265500000	     -2.25165713465349040000	     -0.25293236384422163000	    -44.54442084815999400000	      8.38704011828985330000	      0.00000000000067290670	     -0.00000000000126687046	     -8.33215047912352700000	      3.31800407626026720000	      5.98174967945145040000
      0.92300000000000004000	      2.22174977520466130000	      0.97216719559468512000	     -0.22558955215634063000	      4.93773442653768950000	      0.03659331924719933700	      7.56438520047175360000	     -3.07992099437131770000	      1.69423364614036640000	      5.99322975090848330000	    -12.79403666073508300000	      8.60365834297681960000	     -0.00000000000006546716	      0.00000000000023449434	     10.84511947285100300000	     -2.22288197038692510000	     -0.23999327944801443000	    -44.41276616420520200000	      8.47356408343488000000	      0.00000000000067450847	     -0.00000000000126980920	     -8.34914253883371240000	      3.28777465109668610000	      6.03772276405281170000
      0.92400000000000004000	      2.22273760479951890000	      0.97214773068133919000	     -0.22550170632085487000	      4.94388854583002320000	      0.04631590342614243200	      7.52879993396742190000	     -3.16795102289357990000	      1.68794839431506790000	      5.98388726965585070000	    -12.76445832652965800000	      8.64580839312140980000	     -0.00000000000006552633	      0.00000000000023499903	     10.92259361316695600000	     -2.19444899463170980000	     -0.22638193336187087000	    -44.27874180912829900000	      8.56013611912835160000	      0.00000000000067610858	     -0.00000000000127271349	     -8.36651457068257360000	      3.25797970469979070000	      6.09239631969912130000
      0.92500000000000004000	      2.22372543439437600000	      0.97212826576799327000	     -0.22541386048536907000	      4.95004266512235700000	      0.05603848760508545200	      7.49321466746309020000	     -3.25598105141584200000	      1.68166314248976940000	      5.97454478840321810000	    -12.73487999232423500000	      8.68795844326599820000	     -0.00000000000006558551	      0.00000000000023550373	     11.00006775348290800000	     -2.16601601887649500000	     -0.21277058727572709000	    -44.14471745405138800000	      8.64670815482182500000	      0.00000000000067770868	     -0.00000000000127561777	     -8.38388660253143490000	      3.22818475830289530000	      6.14706987534543000000
